<?xml version="1.0" standalone="no"?>
<!DOCTYPE svg PUBLIC "-//W3C//DTD SVG 20010904//EN"
 "http://www.w3.org/TR/2001/REC-SVG-20010904/DTD/svg10.dtd">
<svg version="1.0" xmlns="http://www.w3.org/2000/svg"
 width="168.000000pt" height="168.000000pt" viewBox="0 0 168.000000 170.000000"
 preserveAspectRatio="xMidYMid meet">
<metadata>
Created by potrace 1.13, written by Peter Selinger 2001-2015
</metadata>
<g transform="translate(0.000000,168.000000) scale(0.100000,-0.100000)"
fill="#000000" stroke="none">
<path d="M699 1318 c-56 -95 -152 -258 -214 -363 -320 -541 -395 -673 -395
-691 0 -11 5 -25 12 -32 17 -17 1439 -17 1456 0 7 7 12 21 12 33 0 11 -160
290 -355 620 -334 567 -355 600 -384 603 -29 3 -33 -2 -132 -170z m252 -193
c319 -540 469 -798 469 -806 0 -5 -255 -9 -596 -9 -328 0 -594 4 -592 9 15 40
595 1008 600 1003 4 -4 57 -92 119 -197z"/>
<path d="M727 950 c-9 -11 -23 -17 -32 -14 -10 4 -15 0 -15 -14 0 -12 -8 -25
-17 -30 -22 -13 -27 -98 -6 -107 9 -3 13 -12 9 -21 -4 -10 3 -18 24 -26 17 -5
27 -14 24 -19 -3 -5 -2 -9 3 -10 4 0 27 -2 50 -4 30 -2 43 1 47 12 4 9 13 13
21 9 11 -4 19 3 25 19 5 14 16 28 25 31 10 4 13 14 9 31 -4 16 -2 28 7 34 12
8 11 12 -5 24 -10 8 -19 24 -20 37 -1 16 -7 22 -19 20 -12 -2 -21 4 -24 18 -5
17 -11 19 -39 14 -22 -4 -34 -2 -34 5 0 17 -14 13 -33 -9z m109 -52 c28 -25
35 -65 19 -105 -26 -61 -97 -72 -146 -24 -48 48 -37 120 23 145 37 16 76 10
104 -16z"/>
<path d="M963 833 c-24 -24 -43 -50 -43 -57 0 -8 -10 -16 -21 -19 -14 -4 -20
-11 -16 -21 6 -16 -25 -41 -37 -29 -3 3 -14 -1 -23 -9 -20 -18 -115 -16 -121
2 -4 12 -61 4 -102 -14 -14 -6 -53 -31 -88 -55 -69 -50 -76 -69 -46 -139 10
-24 13 -50 9 -72 l-6 -35 60 60 c48 46 63 57 73 47 7 -7 24 -12 38 -12 33 0
67 -35 85 -86 15 -45 26 -51 49 -29 21 22 20 50 -4 104 -26 57 -25 64 10 104
17 19 30 39 30 45 0 20 42 41 70 35 15 -3 31 0 34 6 9 13 53 15 60 2 8 -13
144 -13 167 0 41 21 21 37 -56 44 -63 6 -74 10 -64 21 6 8 28 14 48 14 38 0
61 14 61 36 0 14 -102 8 -133 -8 -32 -16 -29 -3 8 36 38 41 47 77 18 75 -10
-1 -37 -21 -60 -46z"/>
<path d="M902 639 c-13 -5 -28 -7 -33 -4 -12 8 -48 -17 -43 -30 3 -7 -6 -23
-20 -36 -27 -25 -33 -45 -16 -51 6 -2 12 -19 13 -38 3 -39 14 -63 26 -55 5 2
21 -7 35 -20 28 -26 56 -33 56 -14 0 6 15 10 33 8 38 -2 68 9 66 25 -3 19 12
46 27 46 8 0 14 10 14 25 0 14 -4 25 -9 25 -5 0 -11 11 -13 25 -3 14 -1 25 3
25 20 0 -7 32 -37 45 -19 8 -34 19 -34 24 0 13 -36 13 -68 0z m89 -58 c66 -66
3 -177 -89 -156 -62 13 -93 83 -62 139 28 53 106 62 151 17z"/>
</g>
<g>
    <text font-size="18" font-family="sans-serif" x="6" y="165">
        Under Construction
    </text>
</g>
</svg>
